<svg xmlns="http://www.w3.org/2000/svg" xmlns:xlink="http://www.w3.org/1999/xlink" width="500" zoomAndPan="magnify" viewBox="0 0 375 374.999991" height="500" preserveAspectRatio="xMidYMid meet" version="1.0"><defs><g/></defs><g fill="#000000" fill-opacity="1"><g transform="translate(17.373682, 251.545152)"><g><path d="M 92.265625 0 L 6.515625 0 L 81.34375 -140.8125 L 11.984375 -140.8125 L 11.984375 -147.125 L 91.84375 -147.125 L 17.03125 -6.3125 L 92.265625 -6.3125 Z M 92.265625 0 "/></g></g></g><g fill="#000000" fill-opacity="1"><g transform="translate(118.245309, 251.545152)"><g><path d="M 27.953125 -147.125 L 113.078125 -147.125 L 60.53125 -63.046875 L 60.53125 0 L 54.21875 0 L 54.21875 -63.046875 L 1.6875 -147.125 L 9.03125 -147.125 L 57.375 -69.984375 L 101.71875 -140.8125 L 27.953125 -140.8125 Z M 27.953125 -147.125 "/></g></g></g><g fill="#000000" fill-opacity="1"><g transform="translate(232.986694, 251.545152)"><g><path d="M 40.984375 0 L 20.8125 0 L 20.8125 -147.125 L 40.984375 -147.125 C 61.160156 -147.125 78.253906 -139.695312 92.265625 -124.84375 C 106.273438 -109.988281 113.28125 -92.894531 113.28125 -73.5625 C 113.28125 -54.226562 106.273438 -37.132812 92.265625 -22.28125 C 78.253906 -7.425781 61.160156 0 40.984375 0 Z M 40.984375 -6.3125 C 59.335938 -6.3125 74.925781 -13.070312 87.75 -26.59375 C 100.570312 -40.113281 106.984375 -55.769531 106.984375 -73.5625 C 106.984375 -91.351562 100.570312 -107.007812 87.75 -120.53125 C 74.925781 -134.050781 59.335938 -140.8125 40.984375 -140.8125 L 27.109375 -140.8125 L 27.109375 -6.3125 Z M 40.984375 -6.3125 "/></g></g></g></svg>