<svg xmlns="http://www.w3.org/2000/svg" xmlns:xlink="http://www.w3.org/1999/xlink" width="500" zoomAndPan="magnify" viewBox="0 0 375 374.999991" height="500" preserveAspectRatio="xMidYMid meet" version="1.0"><defs><g/><clipPath id="68cd2bd0e8"><path d="M 187.5 197.253906 L 320.828125 197.253906 L 320.828125 211.972656 L 187.5 211.972656 Z M 187.5 197.253906 " clip-rule="nonzero"/></clipPath><clipPath id="c940f0b93a"><path d="M 54.171875 212.371094 L 190.671875 212.371094 L 190.671875 359.371094 L 54.171875 359.371094 Z M 54.171875 212.371094 " clip-rule="nonzero"/></clipPath><clipPath id="90e4f2011a"><path d="M 58.414062 310.347656 C 55.851562 302.832031 54.171875 294.242188 54.171875 285.832031 C 54.171875 277.421875 55.613281 269.332031 58.171875 261.875 C 58.253906 261.714844 58.253906 261.558594 58.332031 261.398438 C 68.574219 233.394531 95.613281 212.769531 126.230469 212.371094 L 190.667969 212.371094 L 190.667969 359.371094 L 126.28125 359.371094 C 95.453125 358.976562 68.414062 338.667969 58.414062 310.347656 " clip-rule="nonzero"/></clipPath></defs><g fill="#000000" fill-opacity="1"><g transform="translate(54.173648, 336.196383)"><g><path d="M 64.890625 -341.5625 L 262.515625 -341.5625 L 140.53125 -146.390625 L 140.53125 0 L 125.890625 0 L 125.890625 -146.390625 L 3.90625 -341.5625 L 20.984375 -341.5625 L 133.21875 -162.484375 L 236.171875 -326.921875 L 64.890625 -326.921875 Z M 64.890625 -341.5625 "/></g></g></g><g clip-path="url(#68cd2bd0e8)"><path fill="#000000" d="M 187.5 197.253906 L 320.828125 197.253906 L 320.828125 211.972656 L 187.5 211.972656 Z M 187.5 197.253906 " fill-opacity="1" fill-rule="nonzero"/></g><g clip-path="url(#c940f0b93a)"><g clip-path="url(#90e4f2011a)"><path stroke-linecap="butt" transform="matrix(0.000000000000000046, -0.751798, 0.750967, 0.000000000000000046, 54.17342, 359.372436)" fill="none" stroke-linejoin="miter" d="M 65.210049 5.646908 C 75.206917 2.234641 86.632652 -0.00205754 97.819376 -0.00205754 C 109.006101 -0.00205754 119.766763 1.917342 129.685693 5.324407 C 129.898724 5.433641 130.106559 5.433641 130.31959 5.537674 C 167.568836 19.176336 195.00307 55.181989 195.533049 95.952331 L 195.533049 181.758348 L 0.00178592 181.758348 L 0.00178592 96.019952 C 0.52657 54.968722 27.539937 18.96307 65.210049 5.646908 " stroke="#000000" stroke-width="40" stroke-opacity="1" stroke-miterlimit="4"/></g></g></svg>